<?xml version="1.0" encoding="UTF-8"?>
<svg id="Layer_1" xmlns="http://www.w3.org/2000/svg" xmlns:xlink="http://www.w3.org/1999/xlink" version="1.1" viewBox="0 0 252.3 53.5">
  <!-- Generator: Adobe Illustrator 30.1.0, SVG Export Plug-In . SVG Version: 2.1.1 Build 136)  -->
  <defs>
    <style>
      .logo-fill { fill: #0b1d44; }
      @media (prefers-color-scheme: dark) {
        .logo-fill { fill: #ffffff; }
      }
    </style>
    <clipPath id="clippath">
      <rect width="50.6" height="53.6" fill="none"/>
    </clipPath>
  </defs>
  <g clip-path="url(#clippath)">
    <g>
      <path d="M29.7,24.5c-.6-1.1-1.7-1.4-1.7-1.4,0,.2,0,.4,0,.6,0,2.8-.7,5.1-1.2,5.8,4.3,2,4.3,6.4,4.3,6.4,0,0,2.5-5.3-.4-9-.6-.7-1-1.3-1-2.5h0Z" class="logo-fill"/>
      <path d="M25.1,38.6s0,0,.1,0c0,0,0,0,0,.1,0,0,0,0-.1,0h0Z" class="logo-fill"/>
      <path d="M27.3,29.6s0,0,0,0c0,0,0,0-.1,0,0,0,0,0,0-.1h0Z" class="logo-fill"/>
      <path d="M21.4,40.3h0s0,0,0,0h0Z" class="logo-fill"/>
      <path d="M12.3,49.8c-.4.9-.8,3.2-4.4,2.3-.9-.3-2.3-1.5-2.6-2.1-.5-.9-.6-1.9.2-2.5.7-.5,3.3-2.2,4-2.8,1.1-1,1.3-3.1-.6-4.1-.8-.4-1.7-.5-1.7-.5,0,0-1.2-1.1-2.5-.7-1,.3-1.1,1.3-1.5,1.7-.6.7-1.1.8-1.7.6.2.4.7.9,1.4.8.7,0,.9-.3.9-.3,0,0-.2.5-.4.6.4.4,1.9,0,2.6-.5.6-.5,1-1.5,1-1.5,0,0,1.4-.5,2.4,1.2.5,1,0,1.7-.8,2.2-.8.5-2.9,1.9-3.7,2.5-1.5,1.2-.9,3.1.1,4.3.7.8,2.4,2.1,4,2.4,2.3.5,3.7-.6,4.2-1.7-.9-1.2-1-2-1-2h0Z" class="logo-fill"/>
      <path d="M24.4,29.3s-1.2-.1-2.2,0c-1.1.2-1.8.6-1.8.6,0,0-.7,1.5-1.4,2.6-.7,1.1-2,2.9-3.7,4.6-1.7,1.8-2.7,3.8-3,5.1s-.4,4-.4,4c0,0,.3-4.6,2.5-6.2,2-1.5,3.3-1.5,4.6-1.4,3.5.4,3.7,3.8,3.7,3.8l1.4-.2s0-1.1.3-1.9c.2-.8.9-2,.9-2,0,0-2.5,1-4.1-.7-1.3-1.3-1.7-3.2-.9-5.3,1-2.5,4.2-3.2,4.2-3.2h0Z" class="logo-fill"/>
      <path d="M20,39.6s-3.2.5-5.1,3.7c-2.5,4.2-1.9,6.8-1.9,6.8,0,0-1.8-3.9.4-8,2.2-3.9,6.6-2.5,6.6-2.5h0Z" class="logo-fill"/>
      <path d="M20.8,39.9s2.1,2.2,1.5,4.9c-1,4.8-7.4,8.5-7.4,8.5l-1.6-2.3s.2-4.6,1.7-7c2.6-4.1,5.8-4.1,5.8-4.1h0Z" class="logo-fill"/>
      <path d="M15.2,53.4l1.9-1.2s.9.2,1.5.1c.5,0,1.4-.4,1.9-.2.4.2.7.5.7.7,0,.2,0,.7,0,.7h-6c0,0,0,0,0,0Z" class="logo-fill"/>
      <path d="M17.7,51.8l-.3.2s1.1.2,1.7,0c.6-.1,1.7-.5,2.2,0,.4.4.3,1.4.3,1.4h1v-.9s-.1-1.7-1.8-1.3c-.4,0-1.3.5-1.8.5-.5,0-1.2,0-1.2,0Z" class="logo-fill"/>
      <path d="M18.3,51.3l-.4.3h1s.5,0,1.3-.4c.7-.3,1.4-.3,1.9.1.6.6.6,1,.6,1v1.1s.4,0,.4,0c0,0,0-1.4-.2-1.9-.3-.5-.9-1-1.6-.9-.7,0-1.6.6-1.9.6-.3,0-1.2,0-1.2,0h0Z" class="logo-fill"/>
      <path d="M23.9,53.5s.2-.7.6-.7c.4,0,1.3,0,1.5,0,.1,0,.8.7.9.7,0,0,5.3,0,5.3,0,0,0-.6-1.2-1.4-1.7-1.2-.7-2.4-.7-2.4-.7,0,0-1.1-.8-1.1-2.1,0-1.3,0-1.8,0-2.1,0-.4.3-2.4-.2-3.1-.5-.7-1.2-1.3-1.9-1.2-.7,0-1.5.6-1.8,1.6-.2,1-.2,2.2.2,2.7.4.5.6.6.7.8,0,.2,0,1.3.2,2.3.3,1,.7,1.7.7,1.7,0,0-.7,0-1.1.4-.4.3-.4.5-.4.8s.2.7.2.7h0Z" class="logo-fill"/>
      <path d="M29.3,51s1.9.4,2.4,1.2c.5.8.7,1.3.7,1.3h.9s-.2-1.1-1.1-1.8c-.9-.6-2.8-.7-2.8-.7h0Z" class="logo-fill"/>
      <path d="M27.6,44.2s2.1-2.4,2.6-4.1c.5-1.7.8-4.1-.2-6.6-1-2.3-5.2-6.6-8.8-1.7-1.4,1.8-1.2,4.4,0,5.5,1.1,1.1,2.5,1.4,3.6,1.1l1.1-.3s-.5,1.3-.9,2.1c-.3.9-.4,2-.4,2,0,0,1.3-.4,2.1.3.7.5,1,1.6,1,1.6h0Z" class="logo-fill"/>
      <path d="M12.7,40.3c1-2,4.3-6,5-6.8,4-4.7-.5-7.6-4.8-13.5-4.3-5.9-6.9-9.7-8.1-13.2C3.9,4.5,3,0,3,0c0,0-2.6,6.2.3,11.7,2.9,5.5,9.6,13.7,9.6,13.7,0,0-4.5-4.1-6.8-7.3C3.7,14.9.8,9.8.8,9.8c0,0-1.5,5.6,3.7,10.9,5.2,5.3,7.6,7.4,7.6,7.4,0,0-2.9-1.2-5.8-3.8-2.9-2.6-6.3-7.2-6.3-7.2,0,0,.6,5.6,4.1,8.7,3.6,3.1,7.1,5.1,7.1,5.1,0,0-2.3-.4-4.9-2-2.6-1.6-4.9-3.2-4.9-3.2,0,0,1.6,3.9,4.5,5.4,3,1.5,5.5,2.4,5.5,2.4,0,0-1.9.5-3.5-.2-1.6-.7-3.9-1.6-3.9-1.6,0,0,1.4,2.3,3.9,3.8,2.5,1.5,5.1,1.5,5.1,1.5,0,0-1.1,1.3-1.5,3.1-.7,2.9.2,6.5.2,6.5,0,0-.4-3.6,1-6.3h0Z" class="logo-fill"/>
      <path d="M36,30.4c.7-1.8,4.2-3.3,5.1-2.5,1,.8,1.7-.4,1.7-.4,0,0-1.5.4-1.6-1.4,0-.5,0-1.1-.5-1.4-.7,1.1-3.4,2.8-8.1,5.9.2.8-.2,3.9-.6,5.2,1.4-.2,3.7-4.1,4.1-5.3h0Z" class="logo-fill"/>
      <path d="M42.4,27.2c1.8,0,1-2,1-2-.6,1.5-1.9,1-1.9,1,0,0,0,1,1,1Z" class="logo-fill"/>
      <path d="M42.4,25.4c1.8,0,1-2,1-2-.6,1.5-1.9,1-1.9,1,0,0,0,1,1,1Z" class="logo-fill"/>
      <path d="M43.4,21.5c-.6,1.5-1.9,1-1.9,1,0,0,0,1,1,1,1.8,0,1-2,1-2Z" class="logo-fill"/>
      <path d="M43,27.7s-.3.7-1,.8v2.4h1v-3.2h0Z" class="logo-fill"/>
      <path d="M41.9,23.8v.4s0,0,0,0c.3,0,.6-.1.8-.4-.1,0-.2,0-.3,0h0c-.2,0-.3,0-.5-.1h0Z" class="logo-fill"/>
      <path d="M41.9,25.7v.3s0,0,0,0c.2,0,.4,0,.5-.2,0,0,0,0,0,0h0c-.2,0-.3,0-.5-.1h0Z" class="logo-fill"/>
      <path d="M41.9,20.6v1.7s0,0,0,0c.4,0,.8-.3,1-.6v-1.1h0" class="logo-fill"/>
      <path d="M49.6,43.4l-1.8-11.7h.3c.2,0,.4-.2.5-.5.1-.3,0-.6-.2-.7-.2,0-.4.1-.5.4,0,0,0,.2,0,.3-.3,0-1.1-.7-1.2-.9h-8.4c-.1.2-.9,1-1.2.9,0-.1,0-.2,0-.3-.1-.3-.4-.5-.5-.4-.2,0-.3.4-.2.7,0,.3.3.5.5.5h.3s-1.8,11.7-1.8,11.7h-1c.6,1.1,1.7,1.8,3,1.8s2.4-.7,3-1.8h-1l-1.8-11.7h0s1.4-1.1,1.8-.5c.3.5.9.9,1.6,1,0,0,.2,0,.3,0h0s0,0,.1,0h0s0,0,.1,0l1-.5h.1c0,0,.7.5.7.5,0,0,0,0,.1,0h0s0,0,.1,0c0,0,0,0,.1,0,0,0,0,0,0,0,0,0,0,0,.1,0,.7-.2,1.3-.5,1.6-1h0c.4-.6,1.8.5,1.8.5h0l-1.8,11.7h-1c.6,1.1,1.7,1.8,3,1.8s2.4-.7,3-1.8h-1ZM37.2,43.4h-1.8l1.8-11.7h0v11.7h0ZM39.1,43.4h-1.8v-11.7h0,0s1.8,11.7,1.8,11.7h0ZM47.5,43.4h-1.8l1.8-11.7h0,0s0,11.7,0,11.7h0ZM47.7,43.4v-11.7h0l1.8,11.7h-1.8Z" class="logo-fill"/>
      <path d="M43.2,32.5l-.6-.4v15.8h-.2v-15.8c0,0-.8.4-.8.4h0c-.2,0-.4,0-.6,0,0,2.6.3,13.5.8,17.3.1.8.7,3.2.7,3.2,0,0,.6-2.4.7-3.2.5-3.8.7-14.6.7-17.3-.2,0-.4,0-.6,0h0,0Z" class="logo-fill"/>
      <path d="M34.3,14.8c-.2-.4-1.7-.4-3,.3-2.5,1.3-4.2,2.8-2.8,3.1.3,0,1.2.5,2.2-.5.3-.3.8-.6,2-1,1.3-.4,1.9-1.4,1.7-1.8h0ZM32.6,16c-.9.3-1.8.3-1.8,0,0-.3.6-.7,1.6-1,.9-.3,1.8-.3,1.8,0,0,.3-.6.7-1.6,1Z" class="logo-fill"/>
      <path d="M33.5,26.4s.9,0,1.3-.9c.4-.8.4-1.7.4-1.7,0,0-.5.3-1.2.3-.7,0-1.5-.3-1.5-.3,0,0,.8,1,1,1.4.2.4.3.7.2.9,0,.2-.1.4-.1.4h0Z" class="logo-fill"/>
      <path d="M32.5,23.5c1.3.7,2.7,0,2.7,0,0,0,.4-1-.3-1.6-.4.5-.7,1.2-2.4,1.6h0Z" class="logo-fill"/>
      <path d="M30.9,24.2s.3-.6,1-.1c.5.3,1,.7,1,.7,0,0-.4-.7-1-1.2-1.8-1.4-1.8,0-1.8,0,0,0,0,.9,0,1.3,0,.6.2,1.2.2,1.2,0,0,.7-.1,1.1,0s.7.4.9.5c.2,0,.4,0,.4,0,0,0-.2-.8-.8-1.4-.2-.2-.6-.6-1-.9h0Z" class="logo-fill"/>
      <path d="M30.1,15.6s-4.8-.4-7.4,4c-.5.8-1,1.8-1.3,2.9-.6,1.8-1.1,3.7-1.1,3.8v3.1c.1,0,.6-3.5,1.8-6.6.4-1,.8-1.9,1.2-2.7.6-1,1.4-1.7,2.2-2.3.9-.6,2-.8,3-1,.3-.3,1.6-1.1,1.6-1.1h0Z" class="logo-fill"/>
      <path d="M33,16.6c-.3.1-1.1.5-1.3.6,1.6.6,2.6,1.6,2.6,1.6l.9-.7c0,0-.9-.8-2.2-1.4h0Z" class="logo-fill"/>
      <path d="M42.4,21.4c.6,0,1-.5,1-1s-.5-1-1-1-1,.5-1,1,.5,1,1,1Z" class="logo-fill"/>
      <path d="M35,20.5c-1.7-.6-6.2-1.9-9.1-2.7-.9.5-1.7,1.5-1.7,1.5l10.2,3.2c.4-.2.8-1.3.7-2h0Z" class="logo-fill"/>
      <path d="M30.3,18.9l4.6,1.4s0-.8-1.1-1.6c-.6-.5-1.4-.7-2.2-.5-.7.1-1.4.8-1.4.8h0Z" class="logo-fill"/>
      <path d="M29.3,21.2l-1.8-.5c.1.5.2.9.3,1.4,0,.2,0,.4,0,.6.4.1,1.5.8,1.7,1.4,0-.2,0-.4,0-.6h0c0-1.5,1.7-.5,2.4-.3.7.2,1.9-.5,1.9-.5l-4.8-1.5h0Z" class="logo-fill"/>
      <path d="M32.6,17.9c-.3-.3-.7-.5-1.1-.6-.4.2-.6.3-.8.5-.4.5-.9.7-1.4.8.3,0,.9.3,1.2.4.4-.6.9-1.1,2.1-1Z" class="logo-fill"/>
      <path d="M27.7,17.8c0-.3,0-.5.4-.9-1,.1-2,.6-2,.6.5.1,1.2.3,1.7.5,0,0,0-.2,0-.2h0Z" class="logo-fill"/>
      <path d="M27.1,20.5l-3.2-1c-1.7,2.2-3.4,10-3.4,10,0,0,1.7-.5,2.8-.6,1.2-.1,3,.5,3,.5,0,0,1.7-3.3,1.1-7.8,0-.3-.1-.7-.3-1.1h0Z" class="logo-fill"/>
    </g>
  </g>
  <g>
    <path d="M70.2,53.5c-2,0-3.9-.5-5.5-1.6s-3-2.6-3.9-4.7c-1-2.1-1.4-4.6-1.4-7.5s.5-5.6,1.5-7.6c1-2,2.3-3.6,4-4.6,1.6-1,3.5-1.5,5.4-1.5s2.8.3,3.8.8c1,.5,1.8,1.1,2.4,1.9.6.8,1.1,1.5,1.4,2.2h.2v-13.4h7.2v36.2h-7.1v-4.8h-.4c-.3.7-.8,1.4-1.4,2.2-.6.7-1.5,1.3-2.5,1.8-1,.5-2.2.7-3.7.7ZM72.4,47.7c1.2,0,2.3-.3,3.1-1,.9-.7,1.5-1.6,2-2.8.4-1.2.7-2.6.7-4.2s-.2-3-.7-4.2-1.1-2.1-2-2.8c-.9-.7-1.9-1-3.1-1s-2.3.3-3.2,1c-.9.7-1.5,1.6-1.9,2.8-.4,1.2-.6,2.6-.6,4.1s.2,3,.7,4.2c.4,1.2,1.1,2.2,1.9,2.9s1.9,1,3.2,1Z" class="logo-fill"/>
    <path d="M98.8,53.6c-1.7,0-3.2-.3-4.6-.9-1.3-.6-2.4-1.5-3.2-2.7s-1.2-2.7-1.2-4.4.3-2.7.8-3.7,1.3-1.8,2.3-2.4c.9-.6,2-1.1,3.2-1.4s2.5-.5,3.8-.7c1.5-.2,2.8-.3,3.8-.4,1-.1,1.6-.4,2.1-.6.4-.3.7-.7.7-1.3h0c0-.9-.2-1.5-.5-2.1-.3-.5-.8-.9-1.4-1.2-.6-.3-1.4-.4-2.3-.4s-1.7.1-2.4.4c-.7.3-1.2.7-1.7,1.1-.4.5-.8,1-1,1.6l-6.6-1.1c.5-1.6,1.2-2.9,2.3-4,1.1-1.1,2.4-1.9,4-2.5s3.4-.9,5.4-.9,2.8.2,4.2.5c1.4.3,2.6.9,3.7,1.6,1.1.7,1.9,1.7,2.6,2.8.6,1.2.9,2.5.9,4.2v18.6h-6.8v-4.2h-.2c-.4.8-1,1.6-1.7,2.2-.7.6-1.6,1.1-2.6,1.5-1,.4-2.2.6-3.5.6ZM100.9,48.5c1.1,0,2.1-.2,3-.7s1.5-1.1,2-1.8.7-1.6.7-2.6v-2.9c-.2.2-.5.3-1,.4s-.9.2-1.4.3c-.5,0-1,.2-1.6.3-.5,0-1,.1-1.4.2-.9.1-1.7.3-2.3.6-.7.3-1.2.7-1.6,1.1-.4.5-.6,1.1-.6,1.8s.2,1.3.5,1.7.8.8,1.4,1.1c.6.2,1.3.4,2.1.4Z" class="logo-fill"/>
    <path d="M127.3,53.6c-1.7,0-3.2-.3-4.6-.9-1.3-.6-2.4-1.5-3.2-2.7s-1.2-2.7-1.2-4.4.3-2.7.8-3.7,1.3-1.8,2.3-2.4c.9-.6,2-1.1,3.2-1.4s2.5-.5,3.8-.7c1.5-.2,2.8-.3,3.8-.4,1-.1,1.6-.4,2.1-.6.4-.3.7-.7.7-1.3h0c0-.9-.2-1.5-.5-2.1-.3-.5-.8-.9-1.4-1.2-.6-.3-1.4-.4-2.3-.4s-1.7.1-2.4.4c-.7.3-1.2.7-1.7,1.1-.4.5-.8,1-1,1.6l-6.6-1.1c.5-1.6,1.2-2.9,2.3-4,1.1-1.1,2.4-1.9,4-2.5s3.4-.9,5.4-.9,2.8.2,4.2.5c1.4.3,2.6.9,3.7,1.6,1.1.7,1.9,1.7,2.6,2.8.6,1.2.9,2.5.9,4.2v18.6h-6.8v-4.2h-.2c-.4.8-1,1.6-1.7,2.2-.7.6-1.6,1.1-2.6,1.5-1,.4-2.2.6-3.5.6ZM129.3,48.5c1.1,0,2.1-.2,3-.7s1.5-1.1,2-1.8.7-1.6.7-2.6v-2.9c-.2.2-.5.3-1,.4s-.9.2-1.4.3c-.5,0-1,.2-1.6.3-.5,0-1,.1-1.4.2-.9.1-1.7.3-2.3.6-.7.3-1.2.7-1.6,1.1-.4.5-.6,1.1-.6,1.8s.2,1.3.5,1.7.8.8,1.4,1.1c.6.2,1.3.4,2.1.4Z" class="logo-fill"/>
    <path d="M158.1,53.5c-2,0-3.9-.5-5.5-1.6s-3-2.6-3.9-4.7c-1-2.1-1.4-4.6-1.4-7.5s.5-5.6,1.5-7.6c1-2,2.3-3.6,4-4.6,1.6-1,3.5-1.5,5.4-1.5s2.8.3,3.8.8c1,.5,1.8,1.1,2.4,1.9.6.8,1.1,1.5,1.4,2.2h.2v-13.4h7.2v36.2h-7.1v-4.8h-.4c-.3.7-.8,1.4-1.4,2.2-.6.7-1.5,1.3-2.5,1.8-1,.5-2.2.7-3.7.7ZM160.3,47.7c1.2,0,2.3-.3,3.1-1,.9-.7,1.5-1.6,2-2.8.4-1.2.7-2.6.7-4.2s-.2-3-.7-4.2-1.1-2.1-2-2.8c-.9-.7-1.9-1-3.1-1s-2.3.3-3.2,1c-.9.7-1.5,1.6-1.9,2.8-.4,1.2-.6,2.6-.6,4.1s.2,3,.7,4.2c.4,1.2,1.1,2.2,1.9,2.9s1.9,1,3.2,1Z" class="logo-fill"/>
    <path d="M186.7,53.6c-1.7,0-3.2-.3-4.6-.9-1.3-.6-2.4-1.5-3.2-2.7s-1.2-2.7-1.2-4.4.3-2.7.8-3.7,1.3-1.8,2.3-2.4c.9-.6,2-1.1,3.2-1.4s2.5-.5,3.8-.7c1.5-.2,2.8-.3,3.8-.4,1-.1,1.6-.4,2.1-.6.4-.3.7-.7.7-1.3h0c0-.9-.2-1.5-.5-2.1-.3-.5-.8-.9-1.4-1.2-.6-.3-1.4-.4-2.3-.4s-1.7.1-2.4.4c-.7.3-1.2.7-1.7,1.1-.4.5-.8,1-1,1.6l-6.6-1.1c.5-1.6,1.2-2.9,2.3-4,1.1-1.1,2.4-1.9,4-2.5s3.4-.9,5.4-.9,2.8.2,4.2.5c1.4.3,2.6.9,3.7,1.6,1.1.7,1.9,1.7,2.6,2.8.6,1.2.9,2.5.9,4.2v18.6h-6.8v-4.2h-.2c-.4.8-1,1.6-1.7,2.2-.7.6-1.6,1.1-2.6,1.5-1,.4-2.2.6-3.5.6ZM188.8,48.5c1.1,0,2.1-.2,3-.7s1.5-1.1,2-1.8.7-1.6.7-2.6v-2.9c-.2.2-.5.3-1,.4s-.9.2-1.4.3c-.5,0-1,.2-1.6.3-.5,0-1,.1-1.4.2-.9.1-1.7.3-2.3.6-.7.3-1.2.7-1.6,1.1-.4.5-.6,1.1-.6,1.8s.2,1.3.5,1.7.8.8,1.4,1.1c.6.2,1.3.4,2.1.4Z" class="logo-fill"/>
    <path d="M215.2,53.6c-1.7,0-3.2-.3-4.6-.9-1.3-.6-2.4-1.5-3.2-2.7s-1.2-2.7-1.2-4.4.3-2.7.8-3.7,1.3-1.8,2.3-2.4c.9-.6,2-1.1,3.2-1.4s2.5-.5,3.8-.7c1.5-.2,2.8-.3,3.8-.4,1-.1,1.6-.4,2.1-.6.4-.3.7-.7.7-1.3h0c0-.9-.2-1.5-.5-2.1-.3-.5-.8-.9-1.4-1.2-.6-.3-1.4-.4-2.3-.4s-1.7.1-2.4.4c-.7.3-1.2.7-1.7,1.1-.4.5-.8,1-1,1.6l-6.6-1.1c.5-1.6,1.2-2.9,2.3-4,1.1-1.1,2.4-1.9,4-2.5s3.4-.9,5.4-.9,2.8.2,4.2.5c1.4.3,2.6.9,3.7,1.6,1.1.7,1.9,1.7,2.6,2.8.6,1.2.9,2.5.9,4.2v18.6h-6.8v-4.2h-.2c-.4.8-1,1.6-1.7,2.2-.7.6-1.6,1.1-2.6,1.5-1,.4-2.2.6-3.5.6ZM217.3,48.5c1.1,0,2.1-.2,3-.7s1.5-1.1,2-1.8.7-1.6.7-2.6v-2.9c-.2.2-.5.3-1,.4s-.9.2-1.4.3c-.5,0-1,.2-1.6.3-.5,0-1,.1-1.4.2-.9.1-1.7.3-2.3.6-.7.3-1.2.7-1.6,1.1-.4.5-.6,1.1-.6,1.8s.2,1.3.5,1.7.8.8,1.4,1.1c.6.2,1.3.4,2.1.4Z" class="logo-fill"/>
    <path d="M236.3,53.6v-27.3h6.9v4.7h.3c.5-1.7,1.3-2.9,2.5-3.8,1.2-.8,2.5-1.3,4-1.3s.8,0,1.2,0c.4,0,.8,0,1.1.2v6.4c-.3-.1-.8-.2-1.4-.3-.6,0-1.2,0-1.7,0-1.1,0-2.1.2-2.9.7-.9.5-1.6,1.1-2,2-.5.8-.7,1.8-.7,2.9v15.8h-7.2Z" class="logo-fill"/>
  </g>
</svg>